<?xml version="1.0" standalone="no"?>
 <!DOCTYPE svg PUBLIC "-//W3C//DTD SVG 1.1//EN" 
 "http://www.w3.org/Graphics/SVG/1.1/DTD/svg11.dtd"> 
<svg
  xmlns:svg="http://www.w3.org/2000/svg"
  xmlns="http://www.w3.org/2000/svg"
  xmlns:xlink="http://www.w3.org/1999/xlink"
  version="1.1"
  width="29.700220cm" height="21.000720cm" viewBox="0 0 116930 82680">
<title>SVG Picture created as esp07-breakout-F_Cu.svg date 2020/09/15 00:17:42 </title>
  <desc>Picture generated by PCBNEW </desc>
<g style="fill:#000000; fill-opacity:1;stroke:#000000; stroke-opacity:1;
stroke-linecap:round; stroke-linejoin:round;"
 transform="translate(0 0) scale(1 1)">
</g>
<g style="fill:#000000; fill-opacity:0.0; 
stroke:#000000; stroke-width:-0.000393701; stroke-opacity:1; 
stroke-linecap:round; stroke-linejoin:round;">
</g>
<g style="fill:#000000; fill-opacity:0.0; 
stroke:#000000; stroke-width:118.11; stroke-opacity:1; 
stroke-linecap:round; stroke-linejoin:round;">
<g transform="rotate(-90 54331.6 40354.3)">
<text x="54331.6" y="40748"
textLength="4005.44" font-size="1049.87" lengthAdjust="spacingAndGlyphs"
text-anchor="middle" opacity="0">ESP07</text>
</g>
<path d="M54387 42041
L54387 41779
" />
<path d="M53975 41666
L53975 42041
L54762 42041
L54762 41666
" />
<path d="M54012 41366
L53975 41254
L53975 41066
L54012 40991
L54050 40954
L54125 40916
L54200 40916
L54275 40954
L54312 40991
L54350 41066
L54387 41216
L54425 41291
L54462 41329
L54537 41366
L54612 41366
L54687 41329
L54725 41291
L54762 41216
L54762 41029
L54725 40916
" />
<path d="M53975 40579
L54762 40579
L54762 40279
L54725 40204
L54687 40166
L54612 40129
L54500 40129
L54425 40166
L54387 40204
L54350 40279
L54350 40579
" />
<path d="M54762 39641
L54762 39566
L54725 39491
L54687 39454
L54612 39416
L54462 39379
L54275 39379
L54125 39416
L54050 39454
L54012 39491
L53975 39566
L53975 39641
L54012 39716
L54050 39754
L54125 39791
L54275 39829
L54462 39829
L54612 39791
L54687 39754
L54725 39716
L54762 39641
" />
<path d="M54762 39116
L54762 38592
L53975 38929
" />
</g>
<g style="fill:#000000; fill-opacity:0.0; 
stroke:#000000; stroke-width:196.85; stroke-opacity:1; 
stroke-linecap:round; stroke-linejoin:round;">
<text x="51969.4" y="33366.1"
textLength="2028.31" font-size="1312.34" lengthAdjust="spacingAndGlyphs"
text-anchor="middle" opacity="0">VN</text>
<path d="M52813 32335
L52484 33319
L52156 32335
" />
<path d="M51828 33319
L51828 32335
L51266 33319
L51266 32335
" />
</g>
<g style="fill:#000000; fill-opacity:0.0; 
stroke:#000000; stroke-width:19.685; stroke-opacity:1; 
stroke-linecap:round; stroke-linejoin:round;">
<path d="M50000 31496
L50000 35433
" />
<path d="M65748 31496
L50000 31496
" />
<path d="M65748 35433
L65748 31496
" />
<path d="M65748 47244
L65748 35433
" />
<path d="M50000 47244
L65748 47244
" />
<path d="M50000 35433
L50000 47244
" />
<g >
</g>
<g style="fill:#000000; fill-opacity:0.0; 
stroke:#000000; stroke-width:0; stroke-opacity:1; 
stroke-linecap:round; stroke-linejoin:round;">
</g>
<g style="fill:#000000; fill-opacity:1.0; 
stroke:#000000; stroke-width:0; stroke-opacity:1; 
stroke-linecap:round; stroke-linejoin:round;">
<path style="fill:#000000; fill-opacity:1.0; 
stroke:#000000; stroke-width:0; stroke-opacity:1; 
stroke-linecap:round; stroke-linejoin:round;fill-rule:evenodd;"
d="M 61014.3,32267.7
61014.3,31874
60030,31874
60030,32267.7
Z" /> 
<path style="fill:#000000; fill-opacity:1.0; 
stroke:#000000; stroke-width:0; stroke-opacity:1; 
stroke-linecap:round; stroke-linejoin:round;fill-rule:evenodd;"
d="M 61014.3,33055.1
61014.3,32661.4
60030,32661.4
60030,33055.1
Z" /> 
<path style="fill:#000000; fill-opacity:1.0; 
stroke:#000000; stroke-width:0; stroke-opacity:1; 
stroke-linecap:round; stroke-linejoin:round;fill-rule:evenodd;"
d="M 61014.3,33842.5
61014.3,33448.8
60030,33448.8
60030,33842.5
Z" /> 
<path style="fill:#000000; fill-opacity:1.0; 
stroke:#000000; stroke-width:0; stroke-opacity:1; 
stroke-linecap:round; stroke-linejoin:round;fill-rule:evenodd;"
d="M 61014.3,34629.9
61014.3,34236.2
60030,34236.2
60030,34629.9
Z" /> 
<path style="fill:#000000; fill-opacity:1.0; 
stroke:#000000; stroke-width:0; stroke-opacity:1; 
stroke-linecap:round; stroke-linejoin:round;fill-rule:evenodd;"
d="M 61014.3,35417.3
61014.3,35023.6
60030,35023.6
60030,35417.3
Z" /> 
<path style="fill:#000000; fill-opacity:1.0; 
stroke:#000000; stroke-width:0; stroke-opacity:1; 
stroke-linecap:round; stroke-linejoin:round;fill-rule:evenodd;"
d="M 61014.3,36204.7
61014.3,35811
60030,35811
60030,36204.7
Z" /> 
<path style="fill:#000000; fill-opacity:1.0; 
stroke:#000000; stroke-width:0; stroke-opacity:1; 
stroke-linecap:round; stroke-linejoin:round;fill-rule:evenodd;"
d="M 61014.3,36992.1
61014.3,36598.4
60030,36598.4
60030,36992.1
Z" /> 
<path style="fill:#000000; fill-opacity:1.0; 
stroke:#000000; stroke-width:0; stroke-opacity:1; 
stroke-linecap:round; stroke-linejoin:round;fill-rule:evenodd;"
d="M 61014.3,37779.5
61014.3,37385.8
60030,37385.8
60030,37779.5
Z" /> 
<path style="fill:#000000; fill-opacity:1.0; 
stroke:#000000; stroke-width:0; stroke-opacity:1; 
stroke-linecap:round; stroke-linejoin:round;fill-rule:evenodd;"
d="M 55030,37779.5
55030,37385.8
54045.7,37385.8
54045.7,37779.5
Z" /> 
<path style="fill:#000000; fill-opacity:1.0; 
stroke:#000000; stroke-width:0; stroke-opacity:1; 
stroke-linecap:round; stroke-linejoin:round;fill-rule:evenodd;"
d="M 55030,36992.1
55030,36598.4
54045.7,36598.4
54045.7,36992.1
Z" /> 
<path style="fill:#000000; fill-opacity:1.0; 
stroke:#000000; stroke-width:0; stroke-opacity:1; 
stroke-linecap:round; stroke-linejoin:round;fill-rule:evenodd;"
d="M 55030,36204.7
55030,35811
54045.7,35811
54045.7,36204.7
Z" /> 
<path style="fill:#000000; fill-opacity:1.0; 
stroke:#000000; stroke-width:0; stroke-opacity:1; 
stroke-linecap:round; stroke-linejoin:round;fill-rule:evenodd;"
d="M 55030,35417.3
55030,35023.6
54045.7,35023.6
54045.7,35417.3
Z" /> 
<path style="fill:#000000; fill-opacity:1.0; 
stroke:#000000; stroke-width:0; stroke-opacity:1; 
stroke-linecap:round; stroke-linejoin:round;fill-rule:evenodd;"
d="M 55030,34629.9
55030,34236.2
54045.7,34236.2
54045.7,34629.9
Z" /> 
<path style="fill:#000000; fill-opacity:1.0; 
stroke:#000000; stroke-width:0; stroke-opacity:1; 
stroke-linecap:round; stroke-linejoin:round;fill-rule:evenodd;"
d="M 55030,33842.5
55030,33448.8
54045.7,33448.8
54045.7,33842.5
Z" /> 
<path style="fill:#000000; fill-opacity:1.0; 
stroke:#000000; stroke-width:0; stroke-opacity:1; 
stroke-linecap:round; stroke-linejoin:round;fill-rule:evenodd;"
d="M 55030,33055.1
55030,32661.4
54045.7,32661.4
54045.7,33055.1
Z" /> 
<path style="fill:#000000; fill-opacity:1.0; 
stroke:#000000; stroke-width:0; stroke-opacity:1; 
stroke-linecap:round; stroke-linejoin:round;fill-rule:evenodd;"
d="M 55030,32267.7
55030,31874
54045.7,31874
54045.7,32267.7
Z" /> 
</g>
<g >
</g>
<g style="fill:#000000; fill-opacity:1.0; 
stroke:#000000; stroke-width:0; stroke-opacity:1; 
stroke-linecap:round; stroke-linejoin:round;">
<path style="fill:#000000; fill-opacity:1.0; 
stroke:#000000; stroke-width:0; stroke-opacity:1; 
stroke-linecap:round; stroke-linejoin:round;fill-rule:evenodd;"
d="M 62319.8,39366.1
61729.2,39366.1
61729.2,40153.5
62319.8,40153.5
Z" /> 
<path style="fill:#000000; fill-opacity:1.0; 
stroke:#000000; stroke-width:0; stroke-opacity:1; 
stroke-linecap:round; stroke-linejoin:round;fill-rule:evenodd;"
d="M 64130.8,39366.1
63540.2,39366.1
63540.2,40153.5
64130.8,40153.5
Z" /> 
<path style="fill:#000000; fill-opacity:1.0; 
stroke:#000000; stroke-width:0; stroke-opacity:1; 
stroke-linecap:round; stroke-linejoin:round;fill-rule:evenodd;"
d="M 63225.3,39366.1
62634.7,39366.1
62634.7,40153.5
63225.3,40153.5
Z" /> 
<path style="fill:#000000; fill-opacity:1.0; 
stroke:#000000; stroke-width:0; stroke-opacity:1; 
stroke-linecap:round; stroke-linejoin:round;fill-rule:evenodd;"
d="M 63678,41846.5
62182,41846.5
62182,42633.9
63678,42633.9
Z" /> 
</g>
<g >
</g>
<g style="fill:#000000; fill-opacity:1.0; 
stroke:#000000; stroke-width:0; stroke-opacity:1; 
stroke-linecap:round; stroke-linejoin:round;">
<path style="fill:#000000; fill-opacity:1.0; 
stroke:#000000; stroke-width:0; stroke-opacity:1; 
stroke-linecap:round; stroke-linejoin:round;fill-rule:evenodd;"
d="M 53171.7,41861.8
52659.9,41861.8
52659.9,42472
53171.7,42472
Z" /> 
<path style="fill:#000000; fill-opacity:1.0; 
stroke:#000000; stroke-width:0; stroke-opacity:1; 
stroke-linecap:round; stroke-linejoin:round;fill-rule:evenodd;"
d="M 51400.1,41861.8
50888.3,41861.8
50888.3,42472
51400.1,42472
Z" /> 
<path style="fill:#000000; fill-opacity:1.0; 
stroke:#000000; stroke-width:0; stroke-opacity:1; 
stroke-linecap:round; stroke-linejoin:round;fill-rule:evenodd;"
d="M 51400.1,38728
50888.3,38728
50888.3,39338.2
51400.1,39338.2
Z" /> 
<path style="fill:#000000; fill-opacity:1.0; 
stroke:#000000; stroke-width:0; stroke-opacity:1; 
stroke-linecap:round; stroke-linejoin:round;fill-rule:evenodd;"
d="M 53171.7,38728
52659.9,38728
52659.9,39338.2
53171.7,39338.2
Z" /> 
</g>
<g >
</g>
<g style="fill:#000000; fill-opacity:1.0; 
stroke:#000000; stroke-width:0; stroke-opacity:1; 
stroke-linecap:round; stroke-linejoin:round;">
<path style="fill:#000000; fill-opacity:1.0; 
stroke:#000000; stroke-width:0; stroke-opacity:1; 
stroke-linecap:round; stroke-linejoin:round;fill-rule:evenodd;"
d="M 53092.4,35624.9
53082.8,35626.3
53073.5,35628.6
53064.4,35631.9
53055.6,35636
53047.4,35641
53039.6,35646.8
53032.4,35653.2
53026,35660.4
53020.2,35668.2
53015.2,35676.4
53011.1,35685.2
53007.9,35694.3
53005.5,35703.6
53004.1,35713.2
53003.6,35722.8
53003.6,36077.2
53004.1,36086.8
53005.5,36096.4
53007.9,36105.7
53011.1,36114.8
53015.2,36123.6
53020.2,36131.8
53026,36139.6
53032.4,36146.8
53039.6,36153.2
53047.4,36159
53055.6,36164
53064.4,36168.1
53073.5,36171.4
53082.8,36173.7
53092.4,36175.1
53102,36175.6
53358,36175.6
53367.6,36175.1
53377.2,36173.7
53386.5,36171.4
53395.6,36168.1
53404.4,36164
53412.6,36159
53420.4,36153.2
53427.5,36146.8
53434,36139.6
53439.8,36131.8
53444.8,36123.6
53448.9,36114.8
53452.1,36105.7
53454.5,36096.4
53455.9,36086.8
53456.4,36077.2
53456.4,35722.8
53455.9,35713.2
53454.5,35703.6
53452.1,35694.3
53448.9,35685.2
53444.8,35676.4
53439.8,35668.2
53434,35660.4
53427.5,35653.2
53420.4,35646.8
53412.6,35641
53404.4,35636
53395.6,35631.9
53386.5,35628.6
53377.2,35626.3
53367.6,35624.9
53358,35624.4
53102,35624.4
Z" /> 
<path style="fill:#000000; fill-opacity:1.0; 
stroke:#000000; stroke-width:0; stroke-opacity:1; 
stroke-linecap:round; stroke-linejoin:round;fill-rule:evenodd;"
d="M 52285.3,35624.9
52275.8,35626.3
52266.4,35628.6
52257.3,35631.9
52248.6,35636
52240.3,35641
52232.5,35646.8
52225.4,35653.2
52218.9,35660.4
52213.1,35668.2
52208.2,35676.4
52204,35685.2
52200.8,35694.3
52198.4,35703.6
52197,35713.2
52196.5,35722.8
52196.5,36077.2
52197,36086.8
52198.4,36096.4
52200.8,36105.7
52204,36114.8
52208.2,36123.6
52213.1,36131.8
52218.9,36139.6
52225.4,36146.8
52232.5,36153.2
52240.3,36159
52248.6,36164
52257.3,36168.1
52266.4,36171.4
52275.8,36173.7
52285.3,36175.1
52295,36175.6
52550.9,36175.6
52560.5,36175.1
52570.1,36173.7
52579.4,36171.4
52588.5,36168.1
52597.3,36164
52605.5,36159
52613.3,36153.2
52620.5,36146.8
52626.9,36139.6
52632.7,36131.8
52637.7,36123.6
52641.8,36114.8
52645.1,36105.7
52647.4,36096.4
52648.8,36086.8
52649.3,36077.2
52649.3,35722.8
52648.8,35713.2
52647.4,35703.6
52645.1,35694.3
52641.8,35685.2
52637.7,35676.4
52632.7,35668.2
52626.9,35660.4
52620.5,35653.2
52613.3,35646.8
52605.5,35641
52597.3,35636
52588.5,35631.9
52579.4,35628.6
52570.1,35626.3
52560.5,35624.9
52550.9,35624.4
52295,35624.4
Z" /> 
</g>
<g >
</g>
<g style="fill:#000000; fill-opacity:1.0; 
stroke:#000000; stroke-width:0; stroke-opacity:1; 
stroke-linecap:round; stroke-linejoin:round;">
<path style="fill:#000000; fill-opacity:1.0; 
stroke:#000000; stroke-width:0; stroke-opacity:1; 
stroke-linecap:round; stroke-linejoin:round;fill-rule:evenodd;"
d="M 51643.2,36574.1
51633.6,36575.5
51624.3,36577.9
51615.2,36581.1
51606.4,36585.2
51598.2,36590.2
51590.4,36596
51583.2,36602.4
51576.8,36609.6
51571,36617.4
51566,36625.6
51561.9,36634.4
51558.6,36643.5
51556.3,36652.8
51554.9,36662.4
51554.4,36672
51554.4,36928
51554.9,36937.6
51556.3,36947.2
51558.6,36956.5
51561.9,36965.6
51566,36974.4
51571,36982.6
51576.8,36990.4
51583.2,36997.6
51590.4,37004
51598.2,37009.8
51606.4,37014.8
51615.2,37018.9
51624.3,37022.1
51633.6,37024.5
51643.2,37025.9
51652.8,37026.4
52007.2,37026.4
52016.8,37025.9
52026.4,37024.5
52035.7,37022.1
52044.8,37018.9
52053.6,37014.8
52061.8,37009.8
52069.6,37004
52076.8,36997.6
52083.2,36990.4
52089,36982.6
52094,36974.4
52098.1,36965.6
52101.4,36956.5
52103.7,36947.2
52105.1,36937.6
52105.6,36928
52105.6,36672
52105.1,36662.4
52103.7,36652.8
52101.4,36643.5
52098.1,36634.4
52094,36625.6
52089,36617.4
52083.2,36609.6
52076.8,36602.4
52069.6,36596
52061.8,36590.2
52053.6,36585.2
52044.8,36581.1
52035.7,36577.9
52026.4,36575.5
52016.8,36574.1
52007.2,36573.6
51652.8,36573.6
Z" /> 
<path style="fill:#000000; fill-opacity:1.0; 
stroke:#000000; stroke-width:0; stroke-opacity:1; 
stroke-linecap:round; stroke-linejoin:round;fill-rule:evenodd;"
d="M 51643.2,37381.2
51633.6,37382.6
51624.3,37384.9
51615.2,37388.2
51606.4,37392.3
51598.2,37397.3
51590.4,37403.1
51583.2,37409.5
51576.8,37416.7
51571,37424.5
51566,37432.7
51561.9,37441.5
51558.6,37450.6
51556.3,37459.9
51554.9,37469.5
51554.4,37479.1
51554.4,37735
51554.9,37744.7
51556.3,37754.2
51558.6,37763.6
51561.9,37772.7
51566,37781.4
51571,37789.7
51576.8,37797.5
51583.2,37804.6
51590.4,37811.1
51598.2,37816.9
51606.4,37821.8
51615.2,37826
51624.3,37829.2
51633.6,37831.6
51643.2,37833
51652.8,37833.5
52007.2,37833.5
52016.8,37833
52026.4,37831.6
52035.7,37829.2
52044.8,37826
52053.6,37821.8
52061.8,37816.9
52069.6,37811.1
52076.8,37804.6
52083.2,37797.5
52089,37789.7
52094,37781.4
52098.1,37772.7
52101.4,37763.6
52103.7,37754.2
52105.1,37744.7
52105.6,37735
52105.6,37479.1
52105.1,37469.5
52103.7,37459.9
52101.4,37450.6
52098.1,37441.5
52094,37432.7
52089,37424.5
52083.2,37416.7
52076.8,37409.5
52069.6,37403.1
52061.8,37397.3
52053.6,37392.3
52044.8,37388.2
52035.7,37384.9
52026.4,37382.6
52016.8,37381.2
52007.2,37380.7
51652.8,37380.7
Z" /> 
</g>
<g >
</g>
<g style="fill:#000000; fill-opacity:1.0; 
stroke:#000000; stroke-width:0; stroke-opacity:1; 
stroke-linecap:round; stroke-linejoin:round;">
<path style="fill:#000000; fill-opacity:1.0; 
stroke:#000000; stroke-width:0; stroke-opacity:1; 
stroke-linecap:round; stroke-linejoin:round;fill-rule:evenodd;"
d="M 51243.2,33867
51233.6,33868.4
51224.3,33870.8
51215.2,33874
51206.4,33878.2
51198.2,33883.1
51190.4,33888.9
51183.2,33895.4
51176.8,33902.5
51171,33910.3
51166,33918.6
51161.9,33927.3
51158.6,33936.4
51156.3,33945.8
51154.9,33955.3
51154.4,33965
51154.4,34220.9
51154.9,34230.5
51156.3,34240.1
51158.6,34249.4
51161.9,34258.5
51166,34267.3
51171,34275.5
51176.8,34283.3
51183.2,34290.5
51190.4,34296.9
51198.2,34302.7
51206.4,34307.7
51215.2,34311.8
51224.3,34315.1
51233.6,34317.4
51243.2,34318.8
51252.8,34319.3
51607.2,34319.3
51616.8,34318.8
51626.4,34317.4
51635.7,34315.1
51644.8,34311.8
51653.6,34307.7
51661.8,34302.7
51669.6,34296.9
51676.8,34290.5
51683.2,34283.3
51689,34275.5
51694,34267.3
51698.1,34258.5
51701.4,34249.4
51703.7,34240.1
51705.1,34230.5
51705.6,34220.9
51705.6,33965
51705.1,33955.3
51703.7,33945.8
51701.4,33936.4
51698.1,33927.3
51694,33918.6
51689,33910.3
51683.2,33902.5
51676.8,33895.4
51669.6,33888.9
51661.8,33883.1
51653.6,33878.2
51644.8,33874
51635.7,33870.8
51626.4,33868.4
51616.8,33867
51607.2,33866.5
51252.8,33866.5
Z" /> 
<path style="fill:#000000; fill-opacity:1.0; 
stroke:#000000; stroke-width:0; stroke-opacity:1; 
stroke-linecap:round; stroke-linejoin:round;fill-rule:evenodd;"
d="M 51243.2,34674.1
51233.6,34675.5
51224.3,34677.9
51215.2,34681.1
51206.4,34685.2
51198.2,34690.2
51190.4,34696
51183.2,34702.4
51176.8,34709.6
51171,34717.4
51166,34725.6
51161.9,34734.4
51158.6,34743.5
51156.3,34752.8
51154.9,34762.4
51154.4,34772
51154.4,35028
51154.9,35037.6
51156.3,35047.2
51158.6,35056.5
51161.9,35065.6
51166,35074.4
51171,35082.6
51176.8,35090.4
51183.2,35097.6
51190.4,35104
51198.2,35109.8
51206.4,35114.8
51215.2,35118.9
51224.3,35122.1
51233.6,35124.5
51243.2,35125.9
51252.8,35126.4
51607.2,35126.4
51616.8,35125.9
51626.4,35124.5
51635.7,35122.1
51644.8,35118.9
51653.6,35114.8
51661.8,35109.8
51669.6,35104
51676.8,35097.6
51683.2,35090.4
51689,35082.6
51694,35074.4
51698.1,35065.6
51701.4,35056.5
51703.7,35047.2
51705.1,35037.6
51705.6,35028
51705.6,34772
51705.1,34762.4
51703.7,34752.8
51701.4,34743.5
51698.1,34734.4
51694,34725.6
51689,34717.4
51683.2,34709.6
51676.8,34702.4
51669.6,34696
51661.8,34690.2
51653.6,34685.2
51644.8,34681.1
51635.7,34677.9
51626.4,34675.5
51616.8,34674.1
51607.2,34673.6
51252.8,34673.6
Z" /> 
</g>
<g >
</g>
<g style="fill:#000000; fill-opacity:1.0; 
stroke:#000000; stroke-width:0; stroke-opacity:1; 
stroke-linecap:round; stroke-linejoin:round;">
<path style="fill:#000000; fill-opacity:1.0; 
stroke:#000000; stroke-width:0; stroke-opacity:1; 
stroke-linecap:round; stroke-linejoin:round;fill-rule:evenodd;"
d="M 64243.2,33474.1
64233.6,33475.5
64224.3,33477.9
64215.2,33481.1
64206.4,33485.2
64198.2,33490.2
64190.4,33496
64183.2,33502.4
64176.8,33509.6
64171,33517.4
64166,33525.6
64161.9,33534.4
64158.6,33543.5
64156.3,33552.8
64154.9,33562.4
64154.4,33572
64154.4,33828
64154.9,33837.6
64156.3,33847.2
64158.6,33856.5
64161.9,33865.6
64166,33874.4
64171,33882.6
64176.8,33890.4
64183.2,33897.6
64190.4,33904
64198.2,33909.8
64206.4,33914.8
64215.2,33918.9
64224.3,33922.1
64233.6,33924.5
64243.2,33925.9
64252.8,33926.4
64607.2,33926.4
64616.8,33925.9
64626.4,33924.5
64635.7,33922.1
64644.8,33918.9
64653.6,33914.8
64661.8,33909.8
64669.6,33904
64676.8,33897.6
64683.2,33890.4
64689,33882.6
64694,33874.4
64698.1,33865.6
64701.4,33856.5
64703.7,33847.2
64705.1,33837.6
64705.6,33828
64705.6,33572
64705.1,33562.4
64703.7,33552.8
64701.4,33543.5
64698.1,33534.4
64694,33525.6
64689,33517.4
64683.2,33509.6
64676.8,33502.4
64669.6,33496
64661.8,33490.2
64653.6,33485.2
64644.8,33481.1
64635.7,33477.9
64626.4,33475.5
64616.8,33474.1
64607.2,33473.6
64252.8,33473.6
Z" /> 
<path style="fill:#000000; fill-opacity:1.0; 
stroke:#000000; stroke-width:0; stroke-opacity:1; 
stroke-linecap:round; stroke-linejoin:round;fill-rule:evenodd;"
d="M 64243.2,34281.2
64233.6,34282.6
64224.3,34284.9
64215.2,34288.2
64206.4,34292.3
64198.2,34297.3
64190.4,34303.1
64183.2,34309.5
64176.8,34316.7
64171,34324.5
64166,34332.7
64161.9,34341.5
64158.6,34350.6
64156.3,34359.9
64154.9,34369.5
64154.4,34379.1
64154.4,34635
64154.9,34644.7
64156.3,34654.2
64158.6,34663.6
64161.9,34672.7
64166,34681.4
64171,34689.7
64176.8,34697.5
64183.2,34704.6
64190.4,34711.1
64198.2,34716.9
64206.4,34721.8
64215.2,34726
64224.3,34729.2
64233.6,34731.6
64243.2,34733
64252.8,34733.5
64607.2,34733.5
64616.8,34733
64626.4,34731.6
64635.7,34729.2
64644.8,34726
64653.6,34721.8
64661.8,34716.9
64669.6,34711.1
64676.8,34704.6
64683.2,34697.5
64689,34689.7
64694,34681.4
64698.1,34672.7
64701.4,34663.6
64703.7,34654.2
64705.1,34644.7
64705.6,34635
64705.6,34379.1
64705.1,34369.5
64703.7,34359.9
64701.4,34350.6
64698.1,34341.5
64694,34332.7
64689,34324.5
64683.2,34316.7
64676.8,34309.5
64669.6,34303.1
64661.8,34297.3
64653.6,34292.3
64644.8,34288.2
64635.7,34284.9
64626.4,34282.6
64616.8,34281.2
64607.2,34280.7
64252.8,34280.7
Z" /> 
</g>
<g >
</g>
<g style="fill:#000000; fill-opacity:1.0; 
stroke:#000000; stroke-width:0; stroke-opacity:1; 
stroke-linecap:round; stroke-linejoin:round;">
<path style="fill:#000000; fill-opacity:1.0; 
stroke:#000000; stroke-width:0; stroke-opacity:1; 
stroke-linecap:round; stroke-linejoin:round;fill-rule:evenodd;"
d="M 62743.2,33474.1
62733.6,33475.5
62724.3,33477.9
62715.2,33481.1
62706.4,33485.2
62698.2,33490.2
62690.4,33496
62683.2,33502.4
62676.8,33509.6
62671,33517.4
62666,33525.6
62661.9,33534.4
62658.6,33543.5
62656.3,33552.8
62654.9,33562.4
62654.4,33572
62654.4,33828
62654.9,33837.6
62656.3,33847.2
62658.6,33856.5
62661.9,33865.6
62666,33874.4
62671,33882.6
62676.8,33890.4
62683.2,33897.6
62690.4,33904
62698.2,33909.8
62706.4,33914.8
62715.2,33918.9
62724.3,33922.1
62733.6,33924.5
62743.2,33925.9
62752.8,33926.4
63107.2,33926.4
63116.8,33925.9
63126.4,33924.5
63135.7,33922.1
63144.8,33918.9
63153.6,33914.8
63161.8,33909.8
63169.6,33904
63176.8,33897.6
63183.2,33890.4
63189,33882.6
63194,33874.4
63198.1,33865.6
63201.4,33856.5
63203.7,33847.2
63205.1,33837.6
63205.6,33828
63205.6,33572
63205.1,33562.4
63203.7,33552.8
63201.4,33543.5
63198.1,33534.4
63194,33525.6
63189,33517.4
63183.2,33509.6
63176.8,33502.4
63169.6,33496
63161.8,33490.2
63153.6,33485.2
63144.8,33481.1
63135.7,33477.9
63126.4,33475.5
63116.8,33474.1
63107.2,33473.6
62752.8,33473.6
Z" /> 
<path style="fill:#000000; fill-opacity:1.0; 
stroke:#000000; stroke-width:0; stroke-opacity:1; 
stroke-linecap:round; stroke-linejoin:round;fill-rule:evenodd;"
d="M 62743.2,34281.2
62733.6,34282.6
62724.3,34284.9
62715.2,34288.2
62706.4,34292.3
62698.2,34297.3
62690.4,34303.1
62683.2,34309.5
62676.8,34316.7
62671,34324.5
62666,34332.7
62661.9,34341.5
62658.6,34350.6
62656.3,34359.9
62654.9,34369.5
62654.4,34379.1
62654.4,34635
62654.9,34644.7
62656.3,34654.2
62658.6,34663.6
62661.9,34672.7
62666,34681.4
62671,34689.7
62676.8,34697.5
62683.2,34704.6
62690.4,34711.1
62698.2,34716.9
62706.4,34721.8
62715.2,34726
62724.3,34729.2
62733.6,34731.6
62743.2,34733
62752.8,34733.5
63107.2,34733.5
63116.8,34733
63126.4,34731.6
63135.7,34729.2
63144.8,34726
63153.6,34721.8
63161.8,34716.9
63169.6,34711.1
63176.8,34704.6
63183.2,34697.5
63189,34689.7
63194,34681.4
63198.1,34672.7
63201.4,34663.6
63203.7,34654.2
63205.1,34644.7
63205.6,34635
63205.6,34379.1
63205.1,34369.5
63203.7,34359.9
63201.4,34350.6
63198.1,34341.5
63194,34332.7
63189,34324.5
63183.2,34316.7
63176.8,34309.5
63169.6,34303.1
63161.8,34297.3
63153.6,34292.3
63144.8,34288.2
63135.7,34284.9
63126.4,34282.6
63116.8,34281.2
63107.2,34280.7
62752.8,34280.7
Z" /> 
</g>
<g >
</g>
<g style="fill:#000000; fill-opacity:1.0; 
stroke:#000000; stroke-width:0; stroke-opacity:1; 
stroke-linecap:round; stroke-linejoin:round;">
</g>
<g style="fill:#000000; fill-opacity:1.0; 
stroke:#000000; stroke-width:669.291; stroke-opacity:1; 
stroke-linecap:round; stroke-linejoin:round;">
</g>
<g style="fill:#000000; fill-opacity:0.0; 
stroke:#000000; stroke-width:669.291; stroke-opacity:1; 
stroke-linecap:round; stroke-linejoin:round;">
<path d="M50930 46500
L50930 46500
" />
<path d="M51930 46500
L51930 46500
" />
<path d="M52930 46500
L52930 46500
" />
<path d="M53930 46500
L53930 46500
" />
<path d="M54930 46500
L54930 46500
" />
<path d="M55930 46500
L55930 46500
" />
<path d="M56930 46500
L56930 46500
" />
<path d="M57930 46500
L57930 46500
" />
<path d="M58930 46500
L58930 46500
" />
<path d="M59930 46500
L59930 46500
" />
<path d="M60930 46500
L60930 46500
" />
<path d="M61930 46500
L61930 46500
" />
<path d="M62930 46500
L62930 46500
" />
<path d="M63930 46500
L63930 46500
" />
</g>
<g style="fill:#000000; fill-opacity:0.0; 
stroke:#000000; stroke-width:0; stroke-opacity:1; 
stroke-linecap:round; stroke-linejoin:round;">
</g>
<g style="fill:#000000; fill-opacity:1.0; 
stroke:#000000; stroke-width:0; stroke-opacity:1; 
stroke-linecap:round; stroke-linejoin:round;">
<path style="fill:#000000; fill-opacity:1.0; 
stroke:#000000; stroke-width:0; stroke-opacity:1; 
stroke-linecap:round; stroke-linejoin:round;fill-rule:evenodd;"
d="M 65264.6,46165.4
64595.4,46165.4
64595.4,46834.6
65264.6,46834.6
Z" /> 
</g>
<g >
</g>
<g style="fill:#000000; fill-opacity:1.0; 
stroke:#000000; stroke-width:0; stroke-opacity:1; 
stroke-linecap:round; stroke-linejoin:round;">
<path style="fill:#000000; fill-opacity:1.0; 
stroke:#000000; stroke-width:0; stroke-opacity:1; 
stroke-linecap:round; stroke-linejoin:round;fill-rule:evenodd;"
d="M 63442.4,36724.9
63432.8,36726.3
63423.5,36728.6
63414.4,36731.9
63405.6,36736
63397.4,36741
63389.6,36746.8
63382.4,36753.2
63376,36760.4
63370.2,36768.2
63365.2,36776.4
63361.1,36785.2
63357.9,36794.3
63355.5,36803.6
63354.1,36813.2
63353.6,36822.8
63353.6,37177.2
63354.1,37186.8
63355.5,37196.4
63357.9,37205.7
63361.1,37214.8
63365.2,37223.6
63370.2,37231.8
63376,37239.6
63382.4,37246.8
63389.6,37253.2
63397.4,37259
63405.6,37264
63414.4,37268.1
63423.5,37271.4
63432.8,37273.7
63442.4,37275.1
63452,37275.6
63708,37275.6
63717.6,37275.1
63727.2,37273.7
63736.5,37271.4
63745.6,37268.1
63754.4,37264
63762.6,37259
63770.4,37253.2
63777.5,37246.8
63784,37239.6
63789.8,37231.8
63794.8,37223.6
63798.9,37214.8
63802.1,37205.7
63804.5,37196.4
63805.9,37186.8
63806.4,37177.2
63806.4,36822.8
63805.9,36813.2
63804.5,36803.6
63802.1,36794.3
63798.9,36785.2
63794.8,36776.4
63789.8,36768.2
63784,36760.4
63777.5,36753.2
63770.4,36746.8
63762.6,36741
63754.4,36736
63745.6,36731.9
63736.5,36728.6
63727.2,36726.3
63717.6,36724.9
63708,36724.4
63452,36724.4
Z" /> 
<path style="fill:#000000; fill-opacity:1.0; 
stroke:#000000; stroke-width:0; stroke-opacity:1; 
stroke-linecap:round; stroke-linejoin:round;fill-rule:evenodd;"
d="M 64249.5,36724.9
64239.9,36726.3
64230.6,36728.6
64221.5,36731.9
64212.7,36736
64204.5,36741
64196.7,36746.8
64189.5,36753.2
64183,36760.4
64177.3,36768.2
64172.3,36776.4
64168.2,36785.2
64164.9,36794.3
64162.6,36803.6
64161.2,36813.2
64160.7,36822.8
64160.7,37177.2
64161.2,37186.8
64162.6,37196.4
64164.9,37205.7
64168.2,37214.8
64172.3,37223.6
64177.3,37231.8
64183,37239.6
64189.5,37246.8
64196.7,37253.2
64204.5,37259
64212.7,37264
64221.5,37268.1
64230.6,37271.4
64239.9,37273.7
64249.5,37275.1
64259.1,37275.6
64515,37275.6
64524.7,37275.1
64534.2,37273.7
64543.6,37271.4
64552.7,37268.1
64561.4,37264
64569.7,37259
64577.5,37253.2
64584.6,37246.8
64591.1,37239.6
64596.9,37231.8
64601.8,37223.6
64606,37214.8
64609.2,37205.7
64611.6,37196.4
64613,37186.8
64613.5,37177.2
64613.5,36822.8
64613,36813.2
64611.6,36803.6
64609.2,36794.3
64606,36785.2
64601.8,36776.4
64596.9,36768.2
64591.1,36760.4
64584.6,36753.2
64577.5,36746.8
64569.7,36741
64561.4,36736
64552.7,36731.9
64543.6,36728.6
64534.2,36726.3
64524.7,36724.9
64515,36724.4
64259.1,36724.4
Z" /> 
</g>
<g >
</g>
<g style="fill:#000000; fill-opacity:1.0; 
stroke:#000000; stroke-width:0; stroke-opacity:1; 
stroke-linecap:round; stroke-linejoin:round;">
<path style="fill:#000000; fill-opacity:1.0; 
stroke:#000000; stroke-width:0; stroke-opacity:1; 
stroke-linecap:round; stroke-linejoin:round;fill-rule:evenodd;"
d="M 63442.4,37724.9
63432.8,37726.3
63423.5,37728.6
63414.4,37731.9
63405.6,37736
63397.4,37741
63389.6,37746.8
63382.4,37753.2
63376,37760.4
63370.2,37768.2
63365.2,37776.4
63361.1,37785.2
63357.9,37794.3
63355.5,37803.6
63354.1,37813.2
63353.6,37822.8
63353.6,38177.2
63354.1,38186.8
63355.5,38196.4
63357.9,38205.7
63361.1,38214.8
63365.2,38223.6
63370.2,38231.8
63376,38239.6
63382.4,38246.8
63389.6,38253.2
63397.4,38259
63405.6,38264
63414.4,38268.1
63423.5,38271.4
63432.8,38273.7
63442.4,38275.1
63452,38275.6
63708,38275.6
63717.6,38275.1
63727.2,38273.7
63736.5,38271.4
63745.6,38268.1
63754.4,38264
63762.6,38259
63770.4,38253.2
63777.5,38246.8
63784,38239.6
63789.8,38231.8
63794.8,38223.6
63798.9,38214.8
63802.1,38205.7
63804.5,38196.4
63805.9,38186.8
63806.4,38177.2
63806.4,37822.8
63805.9,37813.2
63804.5,37803.6
63802.1,37794.3
63798.9,37785.2
63794.8,37776.4
63789.8,37768.2
63784,37760.4
63777.5,37753.2
63770.4,37746.8
63762.6,37741
63754.4,37736
63745.6,37731.9
63736.5,37728.6
63727.2,37726.3
63717.6,37724.9
63708,37724.4
63452,37724.4
Z" /> 
<path style="fill:#000000; fill-opacity:1.0; 
stroke:#000000; stroke-width:0; stroke-opacity:1; 
stroke-linecap:round; stroke-linejoin:round;fill-rule:evenodd;"
d="M 64249.5,37724.9
64239.9,37726.3
64230.6,37728.6
64221.5,37731.9
64212.7,37736
64204.5,37741
64196.7,37746.8
64189.5,37753.2
64183,37760.4
64177.3,37768.2
64172.3,37776.4
64168.2,37785.2
64164.9,37794.3
64162.6,37803.6
64161.2,37813.2
64160.7,37822.8
64160.7,38177.2
64161.2,38186.8
64162.6,38196.4
64164.9,38205.7
64168.2,38214.8
64172.3,38223.6
64177.3,38231.8
64183,38239.6
64189.5,38246.8
64196.7,38253.2
64204.5,38259
64212.7,38264
64221.5,38268.1
64230.6,38271.4
64239.9,38273.7
64249.5,38275.1
64259.1,38275.6
64515,38275.6
64524.7,38275.1
64534.2,38273.7
64543.6,38271.4
64552.7,38268.1
64561.4,38264
64569.7,38259
64577.5,38253.2
64584.6,38246.8
64591.1,38239.6
64596.9,38231.8
64601.8,38223.6
64606,38214.8
64609.2,38205.7
64611.6,38196.4
64613,38186.8
64613.5,38177.2
64613.5,37822.8
64613,37813.2
64611.6,37803.6
64609.2,37794.3
64606,37785.2
64601.8,37776.4
64596.9,37768.2
64591.1,37760.4
64584.6,37753.2
64577.5,37746.8
64569.7,37741
64561.4,37736
64552.7,37731.9
64543.6,37728.6
64534.2,37726.3
64524.7,37724.9
64515,37724.4
64259.1,37724.4
Z" /> 
</g>
<g >
</g>
<g style="fill:#000000; fill-opacity:1.0; 
stroke:#000000; stroke-width:0; stroke-opacity:1; 
stroke-linecap:round; stroke-linejoin:round;">
<path style="fill:#000000; fill-opacity:1.0; 
stroke:#000000; stroke-width:0; stroke-opacity:1; 
stroke-linecap:round; stroke-linejoin:round;fill-rule:evenodd;"
d="M 63892.4,44224.9
63882.8,44226.3
63873.5,44228.6
63864.4,44231.9
63855.6,44236
63847.4,44241
63839.6,44246.8
63832.4,44253.2
63826,44260.4
63820.2,44268.2
63815.2,44276.4
63811.1,44285.2
63807.9,44294.3
63805.5,44303.6
63804.1,44313.2
63803.6,44322.8
63803.6,44677.2
63804.1,44686.8
63805.5,44696.4
63807.9,44705.7
63811.1,44714.8
63815.2,44723.6
63820.2,44731.8
63826,44739.6
63832.4,44746.8
63839.6,44753.2
63847.4,44759
63855.6,44764
63864.4,44768.1
63873.5,44771.4
63882.8,44773.7
63892.4,44775.1
63902,44775.6
64158,44775.6
64167.6,44775.1
64177.2,44773.7
64186.5,44771.4
64195.6,44768.1
64204.4,44764
64212.6,44759
64220.4,44753.2
64227.5,44746.8
64234,44739.6
64239.8,44731.8
64244.8,44723.6
64248.9,44714.8
64252.1,44705.7
64254.5,44696.4
64255.9,44686.8
64256.4,44677.2
64256.4,44322.8
64255.9,44313.2
64254.5,44303.6
64252.1,44294.3
64248.9,44285.2
64244.8,44276.4
64239.8,44268.2
64234,44260.4
64227.5,44253.2
64220.4,44246.8
64212.6,44241
64204.4,44236
64195.6,44231.9
64186.5,44228.6
64177.2,44226.3
64167.6,44224.9
64158,44224.4
63902,44224.4
Z" /> 
<path style="fill:#000000; fill-opacity:1.0; 
stroke:#000000; stroke-width:0; stroke-opacity:1; 
stroke-linecap:round; stroke-linejoin:round;fill-rule:evenodd;"
d="M 64699.5,44224.9
64689.9,44226.3
64680.6,44228.6
64671.5,44231.9
64662.7,44236
64654.5,44241
64646.7,44246.8
64639.5,44253.2
64633,44260.4
64627.3,44268.2
64622.3,44276.4
64618.2,44285.2
64614.9,44294.3
64612.6,44303.6
64611.2,44313.2
64610.7,44322.8
64610.7,44677.2
64611.2,44686.8
64612.6,44696.4
64614.9,44705.7
64618.2,44714.8
64622.3,44723.6
64627.3,44731.8
64633,44739.6
64639.5,44746.8
64646.7,44753.2
64654.5,44759
64662.7,44764
64671.5,44768.1
64680.6,44771.4
64689.9,44773.7
64699.5,44775.1
64709.1,44775.6
64965,44775.6
64974.7,44775.1
64984.2,44773.7
64993.6,44771.4
65002.7,44768.1
65011.4,44764
65019.7,44759
65027.5,44753.2
65034.6,44746.8
65041.1,44739.6
65046.9,44731.8
65051.8,44723.6
65056,44714.8
65059.2,44705.7
65061.6,44696.4
65063,44686.8
65063.5,44677.2
65063.5,44322.8
65063,44313.2
65061.6,44303.6
65059.2,44294.3
65056,44285.2
65051.8,44276.4
65046.9,44268.2
65041.1,44260.4
65034.6,44253.2
65027.5,44246.8
65019.7,44241
65011.4,44236
65002.7,44231.9
64993.6,44228.6
64984.2,44226.3
64974.7,44224.9
64965,44224.4
64709.1,44224.4
Z" /> 
</g>
<g >
</g>
<g style="fill:#000000; fill-opacity:1.0; 
stroke:#000000; stroke-width:0; stroke-opacity:1; 
stroke-linecap:round; stroke-linejoin:round;">
<circle cx="62530" cy="37000" r="393.701" /> 
</g>
<g style="fill:#000000; fill-opacity:1.0; 
stroke:#000000; stroke-width:39.3701; stroke-opacity:1; 
stroke-linecap:round; stroke-linejoin:round;">
</g>
<g style="fill:#000000; fill-opacity:1.0; 
stroke:#000000; stroke-width:0; stroke-opacity:1; 
stroke-linecap:round; stroke-linejoin:round;">
<circle cx="52930" cy="37600" r="393.701" /> 
</g>
<g style="fill:#000000; fill-opacity:1.0; 
stroke:#000000; stroke-width:39.3701; stroke-opacity:1; 
stroke-linecap:round; stroke-linejoin:round;">
</g>
<g style="fill:#000000; fill-opacity:1.0; 
stroke:#000000; stroke-width:0; stroke-opacity:1; 
stroke-linecap:round; stroke-linejoin:round;">
<circle cx="64387.1" cy="35757.1" r="393.701" /> 
</g>
<g style="fill:#000000; fill-opacity:1.0; 
stroke:#000000; stroke-width:39.3701; stroke-opacity:1; 
stroke-linecap:round; stroke-linejoin:round;">
</g>
<g style="fill:#000000; fill-opacity:1.0; 
stroke:#000000; stroke-width:0; stroke-opacity:1; 
stroke-linecap:round; stroke-linejoin:round;">
<circle cx="51430" cy="35900" r="393.701" /> 
</g>
<g style="fill:#000000; fill-opacity:1.0; 
stroke:#000000; stroke-width:39.3701; stroke-opacity:1; 
stroke-linecap:round; stroke-linejoin:round;">
</g>
<g >
</g>
<g style="fill:#000000; fill-opacity:1.0; 
stroke:#000000; stroke-width:39.3701; stroke-opacity:1; 
stroke-linecap:round; stroke-linejoin:round;">
</g>
<g style="fill:#000000; fill-opacity:1.0; 
stroke:#000000; stroke-width:196.85; stroke-opacity:1; 
stroke-linecap:round; stroke-linejoin:round;">
</g>
<g style="fill:#000000; fill-opacity:0.0; 
stroke:#000000; stroke-width:196.85; stroke-opacity:1; 
stroke-linecap:round; stroke-linejoin:round;">
<path d="M63930 46500
L63930 44500
" />
<path d="M63580 38000
L62730 38000
" />
<path d="M62024 38705
L62024 39759
" />
<path d="M62730 38000
L62024 38705
" />
<path d="M63580 38000
L63580 37000
" />
<path d="M63580 37000
L62530 37000
" />
<path d="M54520 37600
L54537 37582
" />
<path d="M53130 37600
L54520 37600
" />
<path d="M52915 39033
L52915 42166
" />
<path d="M52915 37814
L53130 37600
" />
<path d="M52915 39033
L52915 37814
" />
<path d="M53122 37607
L53130 37600
" />
<path d="M52130 37607
L53122 37607
" />
<path d="M52915 42166
L52915 44014
" />
<path d="M51930 45000
L51930 46500
" />
<path d="M52915 44014
L51930 45000
" />
<path d="M62430 44500
L64030 44500
" />
<path d="M60930 43000
L62430 44500
" />
<path d="M60930 40000
L60930 43000
" />
<path d="M62024 39759
L61170 39759
" />
<path d="M61170 39759
L60930 40000
" />
<path d="M52130 37607
L51830 37607
" />
<path d="M64930 46500
L64930 42000
" />
<path d="M63835 39759
L64689 39759
" />
<path d="M64930 40000
L64930 41000
" />
<path d="M64930 42000
L64930 41000
" />
<path d="M64689 39759
L64930 40000
" />
<path d="M64930 41000
L64930 40500
" />
<path d="M64330 38057
L64387 38000
" />
<path d="M64330 36942
L64387 37000
" />
<path d="M62930 39169
L63299 38800
" />
<path d="M62930 39759
L62930 39169
" />
<path d="M63299 38800
L64130 38800
" />
<path d="M64387 38542
L64387 38000
" />
<path d="M64130 38800
L64387 38542
" />
<path d="M64387 38000
L64387 37000
" />
<path d="M62930 34507
L64430 34507
" />
<path d="M61530 35000
L61530 37200
" />
<path d="M62930 34507
L62022 34507
" />
<path d="M61147 37582
L60522 37582
" />
<path d="M61530 37200
L61147 37582
" />
<path d="M62022 34507
L61530 35000
" />
<path d="M64387 34550
L64430 34507
" />
<path d="M64387 37000
L64387 35757
" />
<path d="M64387 35757
L64387 34550
" />
<path d="M52322 35800
L52422 35900
" />
</g>
<g style="fill:#000000; fill-opacity:0.0; 
stroke:#000000; stroke-width:393.701; stroke-opacity:1; 
stroke-linecap:round; stroke-linejoin:round;">
<path d="M62930 39759
L62930 42240
" />
</g>
<g style="fill:#000000; fill-opacity:0.0; 
stroke:#000000; stroke-width:196.85; stroke-opacity:1; 
stroke-linecap:round; stroke-linejoin:round;">
<path d="M51430 34900
L51430 35900
" />
<path d="M51430 35900
L52422 35900
" />
<path d="M59672 36007
L60522 36007
" />
<path d="M59130 36550
L59672 36007
" />
<path d="M59130 42400
L59130 36550
" />
<path d="M61930 46500
L61930 45200
" />
<path d="M61930 45200
L59130 42400
" />
<path d="M62930 45600
L62930 46500
" />
<path d="M59530 42200
L62930 45600
" />
<path d="M59530 37100
L59530 42200
" />
<path d="M60522 36795
L59834 36795
" />
<path d="M59834 36795
L59530 37100
" />
<path d="M60930 46500
L60930 44800
" />
<path d="M60930 44800
L58730 42600
" />
<path d="M58730 42600
L58730 35800
" />
<path d="M59309 35220
L60522 35220
" />
<path d="M58730 35800
L59309 35220
" />
<path d="M59930 46500
L59930 44400
" />
<path d="M59930 44400
L58330 42800
" />
<path d="M58330 42800
L58330 35200
" />
<path d="M59096 34433
L60522 34433
" />
<path d="M58330 35200
L59096 34433
" />
<path d="M58930 46500
L58930 44000
" />
<path d="M58930 44000
L57930 43000
" />
<path d="M57930 43000
L57930 34200
" />
<path d="M59271 32858
L60522 32858
" />
<path d="M57930 34200
L59271 32858
" />
<path d="M62875 33645
L62930 33700
" />
<path d="M60922 33645
L62875 33645
" />
<path d="M63500 32070
L60922 32070
" />
<path d="M64430 33000
L63500 32070
" />
<path d="M64430 33700
L64430 33000
" />
<path d="M51144 42166
L51144 39033
" />
<path d="M51144 43985
L51144 42166
" />
<path d="M50930 46500
L50930 44200
" />
<path d="M50930 44200
L51144 43985
" />
<path d="M51144 38214
L51144 39033
" />
<path d="M50530 34400
L50530 37600
" />
<path d="M50530 37600
L51144 38214
" />
<path d="M50837 34092
L50530 34400
" />
<path d="M51430 34092
L50837 34092
" />
<path d="M54537 35220
L53150 35220
" />
<path d="M52022 34092
L51430 34092
" />
<path d="M53150 35220
L52022 34092
" />
<path d="M57930 46500
L57930 43800
" />
<path d="M57930 43800
L57530 43400
" />
<path d="M57530 43400
L57530 33000
" />
<path d="M56600 32070
L54537 32070
" />
<path d="M57530 33000
L56600 32070
" />
<path d="M54533 36800
L54537 36795
" />
<path d="M52130 36800
L54533 36800
" />
<path d="M53930 45200
L53930 46500
" />
<path d="M55930 36400
L55930 43200
" />
<path d="M55930 43200
L53930 45200
" />
<path d="M54537 36007
L55537 36007
" />
<path d="M55537 36007
L55930 36400
" />
<path d="M53337 36007
L53230 35900
" />
<path d="M54537 36007
L53337 36007
" />
<path d="M56930 46500
L56930 44200
" />
<path d="M56930 44200
L57130 44000
" />
<path d="M57130 44000
L57130 34200
" />
<path d="M55788 32858
L54537 32858
" />
<path d="M57130 34200
L55788 32858
" />
<path d="M54930 46500
L54930 45000
" />
<path d="M54930 45000
L56330 43600
" />
<path d="M56330 43600
L56330 35000
" />
<path d="M55763 34433
L54537 34433
" />
<path d="M56330 35000
L55763 34433
" />
<path d="M55930 46500
L55930 44600
" />
<path d="M55930 44600
L56730 43800
" />
<path d="M56730 43800
L56730 34600
" />
<path d="M55775 33645
L54537 33645
" />
<path d="M56730 34600
L55775 33645
" />
<path d="M55530 42600
L52930 45200
" />
<path d="M55530 37200
L55530 42600
" />
<path d="M54537 36795
L55125 36795
" />
<path d="M52930 45200
L52930 46500
" />
<path d="M55125 36795
L55530 37200
" />
<path d="M52130 36800
L51830 36800
" />
</g>
<g >
</g>
<g style="fill:#000000; fill-opacity:0.0; 
stroke:#000000; stroke-width:196.85; stroke-opacity:1; 
stroke-linecap:round; stroke-linejoin:round;">
</g>
<g style="fill:#000000; fill-opacity:1.0; 
stroke:#000000; stroke-width:100; stroke-opacity:1; 
stroke-linecap:round; stroke-linejoin:round;">
<path style="fill:#000000; fill-opacity:1.0; 
stroke:#000000; stroke-width:100; stroke-opacity:1; 
stroke-linecap:round; stroke-linejoin:round;fill-rule:evenodd;"
d="M 61380,42776.6
62548.1,43750
64480,43750
64480,40650
61380,40650
Z" /> 
</g>
</g>
<g style="fill:#FFFFFF; fill-opacity:1.0; 
stroke:#FFFFFF; stroke-width:100; stroke-opacity:1; 
stroke-linecap:round; stroke-linejoin:round;">
</g>
<g style="fill:#FFFFFF; fill-opacity:1.0; 
stroke:#FFFFFF; stroke-width:0; stroke-opacity:1; 
stroke-linecap:round; stroke-linejoin:round;">
<circle cx="62530" cy="37000" r="68.8976" /> 
</g>
<g style="fill:#FFFFFF; fill-opacity:1.0; 
stroke:#FFFFFF; stroke-width:39.3701; stroke-opacity:1; 
stroke-linecap:round; stroke-linejoin:round;">
</g>
<g style="fill:#FFFFFF; fill-opacity:1.0; 
stroke:#FFFFFF; stroke-width:0; stroke-opacity:1; 
stroke-linecap:round; stroke-linejoin:round;">
<circle cx="52930" cy="37600" r="68.8976" /> 
</g>
<g style="fill:#FFFFFF; fill-opacity:1.0; 
stroke:#FFFFFF; stroke-width:39.3701; stroke-opacity:1; 
stroke-linecap:round; stroke-linejoin:round;">
</g>
<g style="fill:#FFFFFF; fill-opacity:1.0; 
stroke:#FFFFFF; stroke-width:0; stroke-opacity:1; 
stroke-linecap:round; stroke-linejoin:round;">
<circle cx="64387.1" cy="35757.1" r="68.8976" /> 
</g>
<g style="fill:#FFFFFF; fill-opacity:1.0; 
stroke:#FFFFFF; stroke-width:39.3701; stroke-opacity:1; 
stroke-linecap:round; stroke-linejoin:round;">
</g>
<g style="fill:#FFFFFF; fill-opacity:1.0; 
stroke:#FFFFFF; stroke-width:0; stroke-opacity:1; 
stroke-linecap:round; stroke-linejoin:round;">
<circle cx="51430" cy="35900" r="68.8976" /> 
</g>
<g style="fill:#FFFFFF; fill-opacity:1.0; 
stroke:#FFFFFF; stroke-width:39.3701; stroke-opacity:1; 
stroke-linecap:round; stroke-linejoin:round;">
</g>
<g style="fill:#FFFFFF; fill-opacity:1.0; 
stroke:#FFFFFF; stroke-width:0; stroke-opacity:1; 
stroke-linecap:round; stroke-linejoin:round;">
<circle cx="50930" cy="46500" r="68.8976" /> 
</g>
<g style="fill:#FFFFFF; fill-opacity:1.0; 
stroke:#FFFFFF; stroke-width:39.3701; stroke-opacity:1; 
stroke-linecap:round; stroke-linejoin:round;">
</g>
<g style="fill:#FFFFFF; fill-opacity:1.0; 
stroke:#FFFFFF; stroke-width:0; stroke-opacity:1; 
stroke-linecap:round; stroke-linejoin:round;">
<circle cx="51930" cy="46500" r="68.8976" /> 
</g>
<g style="fill:#FFFFFF; fill-opacity:1.0; 
stroke:#FFFFFF; stroke-width:39.3701; stroke-opacity:1; 
stroke-linecap:round; stroke-linejoin:round;">
</g>
<g style="fill:#FFFFFF; fill-opacity:1.0; 
stroke:#FFFFFF; stroke-width:0; stroke-opacity:1; 
stroke-linecap:round; stroke-linejoin:round;">
<circle cx="52930" cy="46500" r="68.8976" /> 
</g>
<g style="fill:#FFFFFF; fill-opacity:1.0; 
stroke:#FFFFFF; stroke-width:39.3701; stroke-opacity:1; 
stroke-linecap:round; stroke-linejoin:round;">
</g>
<g style="fill:#FFFFFF; fill-opacity:1.0; 
stroke:#FFFFFF; stroke-width:0; stroke-opacity:1; 
stroke-linecap:round; stroke-linejoin:round;">
<circle cx="53930" cy="46500" r="68.8976" /> 
</g>
<g style="fill:#FFFFFF; fill-opacity:1.0; 
stroke:#FFFFFF; stroke-width:39.3701; stroke-opacity:1; 
stroke-linecap:round; stroke-linejoin:round;">
</g>
<g style="fill:#FFFFFF; fill-opacity:1.0; 
stroke:#FFFFFF; stroke-width:0; stroke-opacity:1; 
stroke-linecap:round; stroke-linejoin:round;">
<circle cx="54930" cy="46500" r="68.8976" /> 
</g>
<g style="fill:#FFFFFF; fill-opacity:1.0; 
stroke:#FFFFFF; stroke-width:39.3701; stroke-opacity:1; 
stroke-linecap:round; stroke-linejoin:round;">
</g>
<g style="fill:#FFFFFF; fill-opacity:1.0; 
stroke:#FFFFFF; stroke-width:0; stroke-opacity:1; 
stroke-linecap:round; stroke-linejoin:round;">
<circle cx="55930" cy="46500" r="68.8976" /> 
</g>
<g style="fill:#FFFFFF; fill-opacity:1.0; 
stroke:#FFFFFF; stroke-width:39.3701; stroke-opacity:1; 
stroke-linecap:round; stroke-linejoin:round;">
</g>
<g style="fill:#FFFFFF; fill-opacity:1.0; 
stroke:#FFFFFF; stroke-width:0; stroke-opacity:1; 
stroke-linecap:round; stroke-linejoin:round;">
<circle cx="56930" cy="46500" r="68.8976" /> 
</g>
<g style="fill:#FFFFFF; fill-opacity:1.0; 
stroke:#FFFFFF; stroke-width:39.3701; stroke-opacity:1; 
stroke-linecap:round; stroke-linejoin:round;">
</g>
<g style="fill:#FFFFFF; fill-opacity:1.0; 
stroke:#FFFFFF; stroke-width:0; stroke-opacity:1; 
stroke-linecap:round; stroke-linejoin:round;">
<circle cx="57930" cy="46500" r="68.8976" /> 
</g>
<g style="fill:#FFFFFF; fill-opacity:1.0; 
stroke:#FFFFFF; stroke-width:39.3701; stroke-opacity:1; 
stroke-linecap:round; stroke-linejoin:round;">
</g>
<g style="fill:#FFFFFF; fill-opacity:1.0; 
stroke:#FFFFFF; stroke-width:0; stroke-opacity:1; 
stroke-linecap:round; stroke-linejoin:round;">
<circle cx="58930" cy="46500" r="68.8976" /> 
</g>
<g style="fill:#FFFFFF; fill-opacity:1.0; 
stroke:#FFFFFF; stroke-width:39.3701; stroke-opacity:1; 
stroke-linecap:round; stroke-linejoin:round;">
</g>
<g style="fill:#FFFFFF; fill-opacity:1.0; 
stroke:#FFFFFF; stroke-width:0; stroke-opacity:1; 
stroke-linecap:round; stroke-linejoin:round;">
<circle cx="59930" cy="46500" r="68.8976" /> 
</g>
<g style="fill:#FFFFFF; fill-opacity:1.0; 
stroke:#FFFFFF; stroke-width:39.3701; stroke-opacity:1; 
stroke-linecap:round; stroke-linejoin:round;">
</g>
<g style="fill:#FFFFFF; fill-opacity:1.0; 
stroke:#FFFFFF; stroke-width:0; stroke-opacity:1; 
stroke-linecap:round; stroke-linejoin:round;">
<circle cx="60930" cy="46500" r="68.8976" /> 
</g>
<g style="fill:#FFFFFF; fill-opacity:1.0; 
stroke:#FFFFFF; stroke-width:39.3701; stroke-opacity:1; 
stroke-linecap:round; stroke-linejoin:round;">
</g>
<g style="fill:#FFFFFF; fill-opacity:1.0; 
stroke:#FFFFFF; stroke-width:0; stroke-opacity:1; 
stroke-linecap:round; stroke-linejoin:round;">
<circle cx="61930" cy="46500" r="68.8976" /> 
</g>
<g style="fill:#FFFFFF; fill-opacity:1.0; 
stroke:#FFFFFF; stroke-width:39.3701; stroke-opacity:1; 
stroke-linecap:round; stroke-linejoin:round;">
</g>
<g style="fill:#FFFFFF; fill-opacity:1.0; 
stroke:#FFFFFF; stroke-width:0; stroke-opacity:1; 
stroke-linecap:round; stroke-linejoin:round;">
<circle cx="62930" cy="46500" r="68.8976" /> 
</g>
<g style="fill:#FFFFFF; fill-opacity:1.0; 
stroke:#FFFFFF; stroke-width:39.3701; stroke-opacity:1; 
stroke-linecap:round; stroke-linejoin:round;">
</g>
<g style="fill:#FFFFFF; fill-opacity:1.0; 
stroke:#FFFFFF; stroke-width:0; stroke-opacity:1; 
stroke-linecap:round; stroke-linejoin:round;">
<circle cx="63930" cy="46500" r="68.8976" /> 
</g>
<g style="fill:#FFFFFF; fill-opacity:1.0; 
stroke:#FFFFFF; stroke-width:39.3701; stroke-opacity:1; 
stroke-linecap:round; stroke-linejoin:round;">
</g>
<g style="fill:#FFFFFF; fill-opacity:1.0; 
stroke:#FFFFFF; stroke-width:0; stroke-opacity:1; 
stroke-linecap:round; stroke-linejoin:round;">
<circle cx="64930" cy="46500" r="68.8976" /> 
</g>
<g style="fill:#FFFFFF; fill-opacity:1.0; 
stroke:#FFFFFF; stroke-width:39.3701; stroke-opacity:1; 
stroke-linecap:round; stroke-linejoin:round;">
</g>
<g style="fill:#000000; fill-opacity:1.0; 
stroke:#000000; stroke-width:39.3701; stroke-opacity:1; 
stroke-linecap:round; stroke-linejoin:round;">
</g> 
</svg>
